<svg width="21" height="22" viewBox="0 0 21 22" fill="none" xmlns="http://www.w3.org/2000/svg">
<path id="Slected" fill-rule="evenodd" clip-rule="evenodd" d="M10.5 21.5C4.75 21.5 0 16.75 0 11C0 5.25 4.74194 0.5 10.4919 0.5C16.2419 0.5 21 5.25 21 11C21 16.75 16.25 21.5 10.5 21.5ZM9.20906 16.2749C9.50745 16.2749 9.76552 16.1378 9.95906 15.8394L15.3784 7.34743C15.4994 7.17001 15.6042 6.95227 15.6042 6.75872C15.6042 6.3313 15.2252 6.06517 14.83 6.06517C14.5962 6.06517 14.3623 6.20227 14.1849 6.47646L9.16874 14.4523L6.49939 11.1055C6.28971 10.8394 6.07197 10.7426 5.8139 10.7426C5.41874 10.7426 5.0881 11.0571 5.0881 11.4845C5.0881 11.6861 5.16874 11.9039 5.30584 12.0732L8.41874 15.8474C8.66874 16.1539 8.91068 16.2749 9.20906 16.2749Z" fill="#FF6A29"/>
</svg>
